<mxfile host="app.diagrams.net" agent="Mozilla/5.0 (Windows NT 10.0; Win64; x64) AppleWebKit/537.36 (KHTML, like Gecko) Chrome/140.0.0.0 Safari/537.36" version="28.2.5">
  <diagram name="第 1 页" id="W4qFh4ONH8MGnh0t9jMo">
    <mxGraphModel grid="0" page="1" gridSize="10" guides="1" tooltips="1" connect="1" arrows="1" fold="1" pageScale="1" pageWidth="1169" pageHeight="827" background="light-dark(#ffffff, #f8f6f6)" math="0" shadow="0">
      <root>
        <mxCell id="0" />
        <mxCell id="1" parent="0" />
        <mxCell id="uWlqBytS7PhtbhWU4hc9-1" value="" style="ellipse;whiteSpace=wrap;html=1;aspect=fixed;" vertex="1" parent="1">
          <mxGeometry x="86" y="53" width="18" height="18" as="geometry" />
        </mxCell>
        <mxCell id="uWlqBytS7PhtbhWU4hc9-3" value="" style="endArrow=classic;html=1;rounded=0;startArrow=none;startFill=0;strokeWidth=1;endFill=1;fillColor=#f5f5f5;strokeColor=light-dark(#666666, #1f1e1e);" edge="1" parent="1">
          <mxGeometry width="50" height="50" relative="1" as="geometry">
            <mxPoint x="94.74" y="70" as="sourcePoint" />
            <mxPoint x="95" y="108" as="targetPoint" />
          </mxGeometry>
        </mxCell>
        <mxCell id="uWlqBytS7PhtbhWU4hc9-4" value="&lt;font style=&quot;color: light-dark(rgb(0, 0, 0), rgb(0, 0, 0));&quot;&gt;Log in&lt;/font&gt;" style="rounded=1;whiteSpace=wrap;html=1;fillColor=light-dark(#FFFFFF,#FFFFFF);perimeterSpacing=2;strokeWidth=1;strokeColor=light-dark(#000000,#FF0000);" vertex="1" parent="1">
          <mxGeometry x="37" y="109" width="120" height="60" as="geometry" />
        </mxCell>
        <mxCell id="uWlqBytS7PhtbhWU4hc9-5" value="" style="endArrow=classic;html=1;rounded=0;startArrow=none;startFill=0;strokeWidth=1;endFill=1;fillColor=#f5f5f5;strokeColor=light-dark(#666666, #1f1e1e);exitX=1;exitY=0.5;exitDx=0;exitDy=0;" edge="1" parent="1" source="uWlqBytS7PhtbhWU4hc9-4">
          <mxGeometry width="50" height="50" relative="1" as="geometry">
            <mxPoint x="250" y="146" as="sourcePoint" />
            <mxPoint x="268" y="139" as="targetPoint" />
          </mxGeometry>
        </mxCell>
        <mxCell id="uWlqBytS7PhtbhWU4hc9-6" value="&lt;font style=&quot;color: light-dark(rgb(0, 0, 0), rgb(0, 0, 0));&quot;&gt;[incorrect log in]&lt;/font&gt;" style="text;html=1;align=center;verticalAlign=middle;resizable=0;points=[];autosize=1;strokeColor=none;fillColor=none;" vertex="1" parent="1">
          <mxGeometry x="157" y="116" width="103" height="26" as="geometry" />
        </mxCell>
        <mxCell id="uWlqBytS7PhtbhWU4hc9-7" value="" style="rhombus;whiteSpace=wrap;html=1;strokeColor=light-dark(#000000,#000000);fillColor=none;" vertex="1" parent="1">
          <mxGeometry x="269" y="129" width="20" height="20" as="geometry" />
        </mxCell>
        <mxCell id="uWlqBytS7PhtbhWU4hc9-9" value="" style="endArrow=none;html=1;rounded=0;exitX=0.5;exitY=0;exitDx=0;exitDy=0;strokeColor=light-dark(#000000,#000000);" edge="1" parent="1" source="uWlqBytS7PhtbhWU4hc9-7">
          <mxGeometry width="50" height="50" relative="1" as="geometry">
            <mxPoint x="264" y="147" as="sourcePoint" />
            <mxPoint x="279" y="83" as="targetPoint" />
          </mxGeometry>
        </mxCell>
        <mxCell id="uWlqBytS7PhtbhWU4hc9-11" value="" style="endArrow=none;html=1;rounded=0;strokeColor=light-dark(#000000,#000000);" edge="1" parent="1">
          <mxGeometry width="50" height="50" relative="1" as="geometry">
            <mxPoint x="279" y="83" as="sourcePoint" />
            <mxPoint x="123" y="83" as="targetPoint" />
          </mxGeometry>
        </mxCell>
        <mxCell id="uWlqBytS7PhtbhWU4hc9-12" value="" style="endArrow=classic;html=1;rounded=0;startArrow=none;startFill=0;strokeWidth=1;endFill=1;fillColor=#f5f5f5;strokeColor=light-dark(#666666, #1f1e1e);" edge="1" parent="1">
          <mxGeometry width="50" height="50" relative="1" as="geometry">
            <mxPoint x="123" y="82" as="sourcePoint" />
            <mxPoint x="123" y="109" as="targetPoint" />
          </mxGeometry>
        </mxCell>
        <mxCell id="uWlqBytS7PhtbhWU4hc9-14" value="&lt;font style=&quot;color: light-dark(rgb(0, 0, 0), rgb(0, 0, 0));&quot;&gt;[retry log in]&lt;/font&gt;" style="text;html=1;align=center;verticalAlign=middle;resizable=0;points=[];autosize=1;strokeColor=none;fillColor=none;" vertex="1" parent="1">
          <mxGeometry x="155" y="61" width="81" height="26" as="geometry" />
        </mxCell>
        <mxCell id="uWlqBytS7PhtbhWU4hc9-16" value="" style="endArrow=classic;html=1;rounded=0;startArrow=none;startFill=0;strokeWidth=1;endFill=1;fillColor=#f5f5f5;strokeColor=light-dark(#666666, #1f1e1e);exitX=1;exitY=0.5;exitDx=0;exitDy=0;" edge="1" parent="1">
          <mxGeometry width="50" height="50" relative="1" as="geometry">
            <mxPoint x="289" y="138.79" as="sourcePoint" />
            <mxPoint x="427" y="139" as="targetPoint" />
          </mxGeometry>
        </mxCell>
        <mxCell id="uWlqBytS7PhtbhWU4hc9-17" value="&lt;font style=&quot;color: light-dark(rgb(0, 0, 0), rgb(0, 0, 0));&quot;&gt;[forget password]&lt;/font&gt;" style="text;html=1;align=center;verticalAlign=middle;resizable=0;points=[];autosize=1;strokeColor=none;fillColor=none;" vertex="1" parent="1">
          <mxGeometry x="297" y="116" width="110" height="26" as="geometry" />
        </mxCell>
        <mxCell id="uWlqBytS7PhtbhWU4hc9-18" value="&lt;font style=&quot;color: light-dark(rgb(0, 0, 0), rgb(0, 0, 0));&quot;&gt;Reset Password&lt;/font&gt;" style="rounded=1;whiteSpace=wrap;html=1;fillColor=light-dark(#FFFFFF,#FFFFFF);perimeterSpacing=2;strokeWidth=1;strokeColor=light-dark(#000000,#FF0000);" vertex="1" parent="1">
          <mxGeometry x="426" y="109" width="120" height="60" as="geometry" />
        </mxCell>
        <mxCell id="uWlqBytS7PhtbhWU4hc9-19" value="" style="endArrow=classic;html=1;rounded=0;startArrow=none;startFill=0;strokeWidth=1;endFill=1;fillColor=#f5f5f5;strokeColor=light-dark(#666666, #1f1e1e);exitX=0.5;exitY=1;exitDx=0;exitDy=0;entryX=0.016;entryY=0.375;entryDx=0;entryDy=0;entryPerimeter=0;" edge="1" parent="1" source="uWlqBytS7PhtbhWU4hc9-7" target="uWlqBytS7PhtbhWU4hc9-20">
          <mxGeometry width="50" height="50" relative="1" as="geometry">
            <mxPoint x="290" y="217" as="sourcePoint" />
            <mxPoint x="424" y="201" as="targetPoint" />
            <Array as="points">
              <mxPoint x="279" y="201" />
            </Array>
          </mxGeometry>
        </mxCell>
        <mxCell id="uWlqBytS7PhtbhWU4hc9-20" value="&lt;font style=&quot;color: light-dark(rgb(0, 0, 0), rgb(0, 0, 0));&quot;&gt;Register&lt;/font&gt;" style="rounded=1;whiteSpace=wrap;html=1;fillColor=light-dark(#FFFFFF,#FFFFFF);perimeterSpacing=2;strokeWidth=1;strokeColor=light-dark(#000000,#FF0000);" vertex="1" parent="1">
          <mxGeometry x="426" y="179" width="120" height="60" as="geometry" />
        </mxCell>
        <mxCell id="uWlqBytS7PhtbhWU4hc9-21" value="&lt;font style=&quot;color: light-dark(rgb(0, 0, 0), rgb(0, 0, 0));&quot;&gt;[new user]&lt;/font&gt;" style="text;html=1;align=center;verticalAlign=middle;resizable=0;points=[];autosize=1;strokeColor=none;fillColor=none;" vertex="1" parent="1">
          <mxGeometry x="316" y="179" width="73" height="26" as="geometry" />
        </mxCell>
        <mxCell id="uWlqBytS7PhtbhWU4hc9-22" value="" style="endArrow=classic;html=1;rounded=0;startArrow=none;startFill=0;strokeWidth=1;endFill=1;fillColor=#f5f5f5;strokeColor=light-dark(#666666, #1f1e1e);" edge="1" parent="1">
          <mxGeometry width="50" height="50" relative="1" as="geometry">
            <mxPoint x="96.71" y="169" as="sourcePoint" />
            <mxPoint x="96.97" y="289" as="targetPoint" />
          </mxGeometry>
        </mxCell>
        <mxCell id="uWlqBytS7PhtbhWU4hc9-23" value="" style="endArrow=classic;html=1;rounded=0;startArrow=none;startFill=0;strokeWidth=1;endFill=1;fillColor=#f5f5f5;strokeColor=light-dark(#666666, #1f1e1e);exitX=1;exitY=0.5;exitDx=0;exitDy=0;entryX=0.988;entryY=0.599;entryDx=0;entryDy=0;entryPerimeter=0;" edge="1" parent="1" source="uWlqBytS7PhtbhWU4hc9-18" target="uWlqBytS7PhtbhWU4hc9-25">
          <mxGeometry width="50" height="50" relative="1" as="geometry">
            <mxPoint x="600" y="141" as="sourcePoint" />
            <mxPoint x="635" y="350" as="targetPoint" />
            <Array as="points">
              <mxPoint x="635" y="139" />
              <mxPoint x="635" y="324" />
            </Array>
          </mxGeometry>
        </mxCell>
        <mxCell id="uWlqBytS7PhtbhWU4hc9-24" value="" style="endArrow=classic;html=1;rounded=0;startArrow=none;startFill=0;strokeWidth=1;endFill=1;fillColor=#f5f5f5;strokeColor=light-dark(#666666, #1f1e1e);exitX=0.985;exitY=0.409;exitDx=0;exitDy=0;exitPerimeter=0;entryX=0.989;entryY=0.259;entryDx=0;entryDy=0;entryPerimeter=0;" edge="1" parent="1" source="uWlqBytS7PhtbhWU4hc9-20" target="uWlqBytS7PhtbhWU4hc9-25">
          <mxGeometry width="50" height="50" relative="1" as="geometry">
            <mxPoint x="568" y="218" as="sourcePoint" />
            <mxPoint x="159" y="303" as="targetPoint" />
            <Array as="points">
              <mxPoint x="611" y="203" />
              <mxPoint x="611" y="303" />
            </Array>
          </mxGeometry>
        </mxCell>
        <mxCell id="uWlqBytS7PhtbhWU4hc9-25" value="&lt;font style=&quot;color: light-dark(rgb(0, 0, 0), rgb(0, 0, 0));&quot;&gt;Student Profile&lt;/font&gt;" style="rounded=1;whiteSpace=wrap;html=1;fillColor=light-dark(#FFFFFF,#FFFFFF);perimeterSpacing=2;strokeWidth=1;strokeColor=light-dark(#000000,#FF0000);" vertex="1" parent="1">
          <mxGeometry x="37" y="289" width="120" height="60" as="geometry" />
        </mxCell>
        <mxCell id="uWlqBytS7PhtbhWU4hc9-26" value="&lt;font style=&quot;color: light-dark(rgb(0, 0, 0), rgb(0, 0, 0));&quot;&gt;[correct log in]&lt;/font&gt;" style="text;html=1;align=center;verticalAlign=middle;resizable=0;points=[];autosize=1;strokeColor=none;fillColor=none;" vertex="1" parent="1">
          <mxGeometry x="90" y="213" width="93" height="26" as="geometry" />
        </mxCell>
        <mxCell id="uWlqBytS7PhtbhWU4hc9-27" value="" style="endArrow=classic;html=1;rounded=0;startArrow=none;startFill=0;strokeWidth=1;endFill=1;fillColor=#f5f5f5;strokeColor=light-dark(#666666, #1f1e1e);" edge="1" parent="1">
          <mxGeometry width="50" height="50" relative="1" as="geometry">
            <mxPoint x="94.63" y="349" as="sourcePoint" />
            <mxPoint x="244" y="453" as="targetPoint" />
            <Array as="points">
              <mxPoint x="95" y="453" />
            </Array>
          </mxGeometry>
        </mxCell>
        <mxCell id="uWlqBytS7PhtbhWU4hc9-29" value="" style="endArrow=none;html=1;rounded=0;strokeColor=light-dark(#000000,#000000);strokeWidth=4;" edge="1" parent="1">
          <mxGeometry width="50" height="50" relative="1" as="geometry">
            <mxPoint x="244" y="600" as="sourcePoint" />
            <mxPoint x="244" y="352" as="targetPoint" />
          </mxGeometry>
        </mxCell>
        <mxCell id="uWlqBytS7PhtbhWU4hc9-30" value="" style="endArrow=classic;html=1;rounded=0;startArrow=none;startFill=0;strokeWidth=1;endFill=1;fillColor=#f5f5f5;strokeColor=light-dark(#666666, #1f1e1e);" edge="1" parent="1">
          <mxGeometry width="50" height="50" relative="1" as="geometry">
            <mxPoint x="244" y="397" as="sourcePoint" />
            <mxPoint x="397" y="397" as="targetPoint" />
          </mxGeometry>
        </mxCell>
        <mxCell id="uWlqBytS7PhtbhWU4hc9-31" value="" style="endArrow=classic;html=1;rounded=0;startArrow=none;startFill=0;strokeWidth=1;endFill=1;fillColor=#f5f5f5;strokeColor=light-dark(#666666, #1f1e1e);" edge="1" parent="1">
          <mxGeometry width="50" height="50" relative="1" as="geometry">
            <mxPoint x="243" y="559" as="sourcePoint" />
            <mxPoint x="396" y="559" as="targetPoint" />
          </mxGeometry>
        </mxCell>
        <mxCell id="uWlqBytS7PhtbhWU4hc9-32" value="&lt;font style=&quot;color: light-dark(rgb(0, 0, 0), rgb(0, 0, 0));&quot;&gt;Add Review&lt;/font&gt;" style="rounded=1;whiteSpace=wrap;html=1;fillColor=light-dark(#FFFFFF,#FFFFFF);perimeterSpacing=2;strokeWidth=1;strokeColor=light-dark(#000000,#FF0000);" vertex="1" parent="1">
          <mxGeometry x="398" y="372" width="120" height="60" as="geometry" />
        </mxCell>
        <mxCell id="uWlqBytS7PhtbhWU4hc9-33" value="&lt;font style=&quot;color: light-dark(rgb(0, 0, 0), rgb(0, 0, 0));&quot;&gt;Enroll Course&lt;/font&gt;" style="rounded=1;whiteSpace=wrap;html=1;fillColor=light-dark(#FFFFFF,#FFFFFF);perimeterSpacing=2;strokeWidth=1;strokeColor=light-dark(#000000,#FF0000);" vertex="1" parent="1">
          <mxGeometry x="398" y="533" width="120" height="60" as="geometry" />
        </mxCell>
        <mxCell id="uWlqBytS7PhtbhWU4hc9-34" value="" style="endArrow=classic;html=1;rounded=0;startArrow=none;startFill=0;strokeWidth=1;endFill=1;fillColor=#f5f5f5;strokeColor=light-dark(#666666, #1f1e1e);exitX=0.75;exitY=1;exitDx=0;exitDy=0;entryX=0.751;entryY=0.018;entryDx=0;entryDy=0;entryPerimeter=0;" edge="1" parent="1">
          <mxGeometry width="50" height="50" relative="1" as="geometry">
            <mxPoint x="438.9999999999999" y="432" as="sourcePoint" />
            <mxPoint x="439.124" y="530.1519999999999" as="targetPoint" />
          </mxGeometry>
        </mxCell>
        <mxCell id="uWlqBytS7PhtbhWU4hc9-35" value="" style="endArrow=classic;html=1;rounded=0;startArrow=none;startFill=0;strokeWidth=1;endFill=1;fillColor=#f5f5f5;strokeColor=light-dark(#666666, #1f1e1e);exitX=0.25;exitY=0;exitDx=0;exitDy=0;entryX=0.25;entryY=1;entryDx=0;entryDy=0;" edge="1" parent="1">
          <mxGeometry width="50" height="50" relative="1" as="geometry">
            <mxPoint x="482.0000000000001" y="529" as="sourcePoint" />
            <mxPoint x="482.0000000000002" y="432" as="targetPoint" />
          </mxGeometry>
        </mxCell>
        <mxCell id="uWlqBytS7PhtbhWU4hc9-36" value="&lt;font style=&quot;color: light-dark(rgb(0, 0, 0), rgb(0, 0, 0));&quot;&gt;[course not enroll]&lt;/font&gt;" style="text;html=1;align=center;verticalAlign=middle;resizable=0;points=[];autosize=1;strokeColor=none;fillColor=none;" vertex="1" parent="1">
          <mxGeometry x="331" y="469" width="113" height="26" as="geometry" />
        </mxCell>
        <mxCell id="uWlqBytS7PhtbhWU4hc9-37" value="&lt;font style=&quot;color: light-dark(rgb(0, 0, 0), rgb(0, 0, 0));&quot;&gt;[enrollment verified]&lt;/font&gt;" style="text;html=1;align=center;verticalAlign=middle;resizable=0;points=[];autosize=1;strokeColor=none;fillColor=none;" vertex="1" parent="1">
          <mxGeometry x="475" y="469" width="123" height="26" as="geometry" />
        </mxCell>
        <mxCell id="uWlqBytS7PhtbhWU4hc9-38" value="" style="endArrow=classic;html=1;rounded=0;startArrow=none;startFill=0;strokeWidth=1;endFill=1;fillColor=#f5f5f5;strokeColor=light-dark(#666666, #1f1e1e);" edge="1" parent="1">
          <mxGeometry width="50" height="50" relative="1" as="geometry">
            <mxPoint x="518" y="401.58" as="sourcePoint" />
            <mxPoint x="671" y="401.58" as="targetPoint" />
          </mxGeometry>
        </mxCell>
        <mxCell id="uWlqBytS7PhtbhWU4hc9-41" value="&lt;font style=&quot;color: light-dark(rgb(0, 0, 0), rgb(0, 0, 0));&quot;&gt;[course enrolled]&lt;/font&gt;" style="text;html=1;align=center;verticalAlign=middle;resizable=0;points=[];autosize=1;strokeColor=none;fillColor=none;" vertex="1" parent="1">
          <mxGeometry x="536" y="379" width="107" height="26" as="geometry" />
        </mxCell>
        <mxCell id="uWlqBytS7PhtbhWU4hc9-42" value="&lt;font style=&quot;color: light-dark(rgb(0, 0, 0), rgb(0, 0, 0));&quot;&gt;Review Post&lt;/font&gt;" style="rounded=1;whiteSpace=wrap;html=1;fillColor=light-dark(#FFFFFF,#FFFFFF);perimeterSpacing=2;strokeWidth=1;strokeColor=light-dark(#000000,#FF0000);" vertex="1" parent="1">
          <mxGeometry x="671" y="372" width="120" height="60" as="geometry" />
        </mxCell>
        <mxCell id="uWlqBytS7PhtbhWU4hc9-43" value="" style="endArrow=classic;html=1;rounded=0;startArrow=none;startFill=0;strokeWidth=1;endFill=1;fillColor=#f5f5f5;strokeColor=light-dark(#666666, #1f1e1e);" edge="1" parent="1">
          <mxGeometry width="50" height="50" relative="1" as="geometry">
            <mxPoint x="791" y="401.77" as="sourcePoint" />
            <mxPoint x="858" y="402" as="targetPoint" />
          </mxGeometry>
        </mxCell>
        <mxCell id="uWlqBytS7PhtbhWU4hc9-44" value="" style="endArrow=none;html=1;rounded=0;strokeColor=light-dark(#000000,#000000);strokeWidth=4;" edge="1" parent="1">
          <mxGeometry width="50" height="50" relative="1" as="geometry">
            <mxPoint x="860" y="597" as="sourcePoint" />
            <mxPoint x="860" y="349" as="targetPoint" />
          </mxGeometry>
        </mxCell>
        <mxCell id="uWlqBytS7PhtbhWU4hc9-45" value="" style="endArrow=classic;html=1;rounded=0;startArrow=none;startFill=0;strokeWidth=1;endFill=1;fillColor=#f5f5f5;strokeColor=light-dark(#666666, #1f1e1e);" edge="1" parent="1">
          <mxGeometry width="50" height="50" relative="1" as="geometry">
            <mxPoint x="860" y="481.87" as="sourcePoint" />
            <mxPoint x="927" y="482.1" as="targetPoint" />
          </mxGeometry>
        </mxCell>
        <mxCell id="uWlqBytS7PhtbhWU4hc9-46" value="" style="ellipse;whiteSpace=wrap;html=1;aspect=fixed;fillColor=none;strokeColor=light-dark(#000000,#000000);" vertex="1" parent="1">
          <mxGeometry x="926" y="469" width="26" height="26" as="geometry" />
        </mxCell>
        <mxCell id="uWlqBytS7PhtbhWU4hc9-47" value="" style="ellipse;whiteSpace=wrap;html=1;aspect=fixed;" vertex="1" parent="1">
          <mxGeometry x="929" y="472" width="20" height="20" as="geometry" />
        </mxCell>
        <mxCell id="uWlqBytS7PhtbhWU4hc9-48" value="&lt;font style=&quot;font-size: 16px;&quot;&gt;&lt;font style=&quot;color: light-dark(rgb(0, 0, 0), rgb(0, 0, 0));&quot;&gt;User &lt;/font&gt;&lt;font style=&quot;color: light-dark(rgb(0, 0, 0), rgb(0, 0, 0));&quot;&gt;Story: 16.As a student, I want to have the ability to enroll a course before it is reviewed, so that the review is authenticated.&amp;nbsp;&amp;nbsp;&lt;/font&gt;&lt;/font&gt;" style="text;html=1;align=center;verticalAlign=middle;resizable=0;points=[];autosize=1;strokeColor=none;fillColor=none;" vertex="1" parent="1">
          <mxGeometry x="63" y="656" width="932" height="31" as="geometry" />
        </mxCell>
        <mxCell id="uWlqBytS7PhtbhWU4hc9-49" value="" style="endArrow=classic;html=1;rounded=0;startArrow=none;startFill=0;strokeWidth=1;endFill=1;fillColor=#f5f5f5;strokeColor=light-dark(#666666, #1f1e1e);entryX=0.987;entryY=0.762;entryDx=0;entryDy=0;entryPerimeter=0;" edge="1" parent="1" target="uWlqBytS7PhtbhWU4hc9-33">
          <mxGeometry width="50" height="50" relative="1" as="geometry">
            <mxPoint x="518" y="547" as="sourcePoint" />
            <mxPoint x="591" y="640.9672131147541" as="targetPoint" />
            <Array as="points">
              <mxPoint x="592" y="547" />
              <mxPoint x="592" y="580" />
            </Array>
          </mxGeometry>
        </mxCell>
        <mxCell id="uWlqBytS7PhtbhWU4hc9-52" value="&lt;font style=&quot;color: light-dark(rgb(0, 0, 0), rgb(0, 0, 0));&quot;&gt;[enrollment not verified]&lt;/font&gt;" style="text;html=1;align=center;verticalAlign=middle;resizable=0;points=[];autosize=1;strokeColor=none;fillColor=none;" vertex="1" parent="1">
          <mxGeometry x="585" y="550" width="143" height="26" as="geometry" />
        </mxCell>
      </root>
    </mxGraphModel>
  </diagram>
</mxfile>
